HIERARCHY
ROOT Hips
{
	OFFSET 0.000000 0.000000 0.000000
	CHANNELS 6 Xposition Yposition Zposition Xrotation Yrotation Zrotation
	JOINT LeftUpLeg_virtual
	{
		OFFSET 0.000000 0.000000 0.000000
		CHANNELS 3 Xrotation Yrotation Zrotation
		JOINT LeftUpLeg
		{
			OFFSET 11.394100 -6.187798 -0.413800
			CHANNELS 3 Xrotation Yrotation Zrotation
			JOINT LeftLeg
			{
				OFFSET 0.430247 -32.302673 3.732800
				CHANNELS 3 Xrotation Yrotation Zrotation
				JOINT LeftFoot
				{
					OFFSET -0.430247 -48.264931 -6.423300
					CHANNELS 3 Xrotation Yrotation Zrotation
					JOINT LeftToeBase
					{
						OFFSET 4.230900 -16.068199 23.438400
						CHANNELS 3 Xrotation Yrotation Zrotation
						JOINT LeftToe_End
						{
							OFFSET 4.510700 0.695400 19.974600
							CHANNELS 3 Xrotation Yrotation Zrotation
							End Site
							{
								OFFSET 0 0 0
							}
						}
					}
				}
			}
		}
	}
	JOINT RightUpLeg_virtual
	{
		OFFSET 0.000000 0.000000 0.000000
		CHANNELS 3 Xrotation Yrotation Zrotation
		JOINT RightUpLeg
		{
			OFFSET -11.333700 -6.187798 -0.413800
			CHANNELS 3 Xrotation Yrotation Zrotation
			JOINT RightLeg
			{
				OFFSET -0.430392 -32.302628 3.733000
				CHANNELS 3 Xrotation Yrotation Zrotation
				JOINT RightFoot
				{
					OFFSET 0.430392 -48.264973 -6.423500
					CHANNELS 3 Xrotation Yrotation Zrotation
					JOINT RightToeBase
					{
						OFFSET -4.230900 -16.068199 23.438400
						CHANNELS 3 Xrotation Yrotation Zrotation
						JOINT RightToe_End
						{
							OFFSET -4.510700 0.695400 19.974600
							CHANNELS 3 Xrotation Yrotation Zrotation
							End Site
							{
								OFFSET 0 0 0
							}
						}
					}
				}
			}
		}
	}
	JOINT Spine_virtual
	{
		OFFSET 0.000000 0.000000 0.000000
		CHANNELS 3 Xrotation Yrotation Zrotation
		JOINT Spine
		{
			OFFSET -0.002400 12.777504 0.315300
			CHANNELS 3 Xrotation Yrotation Zrotation
			JOINT Spine1
			{
				OFFSET -0.002067 5.816869 0.032633
				CHANNELS 3 Xrotation Yrotation Zrotation
				JOINT Spine1_split
				{
					OFFSET -0.002067 5.816869 0.032633
					CHANNELS 3 Xrotation Yrotation Zrotation
					JOINT Spine2
					{
						OFFSET -0.002067 5.816869 0.032633
						CHANNELS 3 Xrotation Yrotation Zrotation
						JOINT Neck_virtual
						{
							OFFSET 0.000000 0.000000 0.000000
							CHANNELS 3 Xrotation Yrotation Zrotation
							JOINT Neck
							{
								OFFSET -0.003700 21.199493 -0.826900
								CHANNELS 3 Xrotation Yrotation Zrotation
								JOINT Head
								{
									OFFSET 0.000000 20.442200 4.834800
									CHANNELS 3 Xrotation Yrotation Zrotation
									JOINT HeadTop_End
									{
										OFFSET 0.000000 34.668396 4.968400
										CHANNELS 3 Xrotation Yrotation Zrotation
										End Site
										{
											OFFSET 0 0 0
										}
									}
								}
							}
						}
						JOINT LeftShoulder_virtual
						{
							OFFSET 0.000000 0.000000 0.000000
							CHANNELS 3 Xrotation Yrotation Zrotation
							JOINT LeftShoulder
							{
								OFFSET 3.288150 8.794197 -1.372250
								CHANNELS 3 Xrotation Yrotation Zrotation
								JOINT LeftShoulder_split
								{
									OFFSET 3.288150 8.794197 -1.372250
									CHANNELS 3 Xrotation Yrotation Zrotation
									JOINT LeftArm
									{
										OFFSET 11.953299 -2.279007 -0.146200
										CHANNELS 3 Xrotation Yrotation Zrotation
										JOINT LeftForeArm
										{
											OFFSET 18.448900 0.000000 0.000000
											CHANNELS 3 Xrotation Yrotation Zrotation
											JOINT LeftHand
											{
												OFFSET 29.527798 0.000000 0.000000
												CHANNELS 3 Xrotation Yrotation Zrotation
												End Site
												{
													OFFSET 0 0 0
												}
											}
										}
									}
								}
							}
						}
						JOINT RightShoulder_virtual
						{
							OFFSET 0.000000 0.000000 0.000000
							CHANNELS 3 Xrotation Yrotation Zrotation
							JOINT RightShoulder
							{
								OFFSET -3.249400 8.794197 -1.372250
								CHANNELS 3 Xrotation Yrotation Zrotation
								JOINT RightShoulder_split
								{
									OFFSET -3.249400 8.794197 -1.372250
									CHANNELS 3 Xrotation Yrotation Zrotation
									JOINT RightArm
									{
										OFFSET -11.953299 -2.279007 -0.146200
										CHANNELS 3 Xrotation Yrotation Zrotation
										JOINT RightForeArm
										{
											OFFSET -18.448900 0.000000 0.000000
											CHANNELS 3 Xrotation Yrotation Zrotation
											JOINT RightHand
											{
												OFFSET -29.527802 0.000000 0.000000
												CHANNELS 3 Xrotation Yrotation Zrotation
												End Site
												{
													OFFSET 0 0 0
												}
											}
										}
									}
								}
							}
						}
					}
				}
			}
		}
	}
}
MOTION
Frames: 4
Frame Time: 0.03333333
45.618748 78.616425 221.849350 0.000000 0.000000 0.000000 -3.123767 21.065707 -13.195775 -9.764642 4.197221 -4.645265 72.555160 4.562589 0.579490 8.015083 2.692061 20.059108 -0.674783 -0.564876 -1.163567 0.000000 0.000000 0.000000 0.385378 23.713157 -13.901548 -55.542477 14.313869 6.769943 39.394175 -0.749864 -4.612779 16.169911 6.139536 8.406726 -8.326233 -3.617370 -1.649133 0.000000 0.000000 0.000000 -1.135954 25.910341 -12.849804 3.098406 -10.070740 -2.460766 3.399401 -2.641409 1.248713 -0.266578 0.265723 -0.014063 0.000000 0.000000 0.000000 2.524395 -4.046195 2.220031 -1.810323 3.048055 0.765094 -10.323462 34.249342 4.856478 0.000000 0.000000 0.000000 1.682414 -3.116393 1.660908 -0.522348 -0.388464 -9.117330 1.983533 3.905002 0.123001 17.171468 -13.255204 -46.053257 36.919495 -85.777054 32.841209 0.000000 0.000000 0.000000 2.847282 -3.645493 1.737086 0.459500 -4.501330 8.092194 2.622268 8.479968 -1.614237 36.750629 11.248166 50.844458 179.902019 84.916737 177.584932 0.000000 0.000000 0.000000 
50.326027 75.765289 233.273788 0.000000 0.000000 0.000000 -5.242813 19.885078 -13.620642 -30.841931 7.503792 -3.297066 88.560123 5.287710 1.049450 5.985215 -0.011477 21.792914 -7.651496 -1.125454 1.053752 0.000000 0.000000 0.000000 -0.383729 26.511972 -15.082258 -44.474183 11.210807 6.270008 53.478844 -3.763285 -2.358710 -9.276199 3.402529 0.648444 -6.797621 -3.554931 -0.326299 0.000000 0.000000 0.000000 -4.757693 27.193883 -12.775214 6.075939 -6.991586 -2.007086 3.881649 -1.061843 1.447233 -0.508156 0.875232 0.091326 0.000000 0.000000 0.000000 3.088876 -2.515083 2.478723 -2.986154 2.755034 0.756750 -10.072711 31.801931 4.683971 0.000000 0.000000 0.000000 2.636480 -1.454551 1.555336 -0.326324 0.182197 -9.698928 1.192208 2.125131 -1.841425 27.577092 -15.635474 -50.692141 13.594837 -71.603107 9.468324 0.000000 0.000000 0.000000 3.716331 -1.894034 1.738271 -0.000526 -2.936395 10.539556 2.745884 7.543005 -0.273757 22.793002 17.752362 52.109590 -127.683679 89.358668 124.620981 0.000000 0.000000 0.000000 
53.881676 73.974983 242.527573 0.000000 0.000000 0.000000 -6.329576 20.083659 -14.013271 -52.060733 9.714640 -0.774999 99.727244 6.087384 1.299604 3.397889 -2.484605 23.398017 -15.780140 -1.725989 2.282863 0.000000 0.000000 0.000000 -1.336017 29.425712 -15.552389 -37.410428 8.750961 5.342930 66.933415 -3.821812 -0.239684 -27.180700 4.714555 -3.260359 -6.948825 -3.219492 0.482689 0.000000 0.000000 0.000000 -7.755222 28.209552 -12.746286 8.461345 -3.871912 -1.371633 4.432718 0.331779 1.527677 0.010008 1.420000 0.227164 0.000000 0.000000 0.000000 3.814913 -1.003600 2.539916 -3.377783 2.466179 0.839141 -9.683765 29.206732 4.741884 0.000000 0.000000 0.000000 3.516392 0.085084 1.550310 -0.172163 0.838802 -9.018537 0.038167 0.519010 -2.882097 34.371821 -17.611016 -54.493677 10.182325 -62.033643 6.990226 0.000000 0.000000 0.000000 4.601530 -0.335286 1.592526 -0.440906 -2.280913 11.942838 3.219787 6.020410 0.184779 8.112966 21.615049 54.823415 -92.125762 89.239980 89.273079 0.000000 0.000000 0.000000 
56.428127 73.041565 248.967346 0.000000 0.000000 0.000000 -5.826463 20.527478 -14.657888 -68.176735 9.384231 1.838387 105.267695 6.570359 1.053861 3.487998 -2.776969 23.834227 -18.920129 -1.495524 1.225409 0.000000 0.000000 0.000000 -2.194797 31.276672 -15.777314 -33.538695 7.500619 3.642069 74.478582 -0.821236 0.081129 -34.326833 7.029509 -1.084188 -9.871747 -2.944319 0.590679 0.000000 0.000000 0.000000 -9.060627 28.644820 -13.311748 9.772073 -1.158563 -0.485105 4.947031 1.295693 1.476009 0.549595 1.973528 0.321358 0.000000 0.000000 0.000000 4.599488 0.193728 2.416354 -3.107342 2.135947 1.127697 -9.478892 27.068806 4.958206 0.000000 0.000000 0.000000 4.143433 1.289119 1.626601 -0.092833 1.364299 -7.641682 -0.901978 -0.816282 -2.217643 37.756220 -17.773119 -57.500590 7.568633 -59.480347 5.993556 0.000000 0.000000 0.000000 5.272284 0.752970 1.350342 -0.635570 -2.328675 12.088410 3.789976 4.455500 0.221484 -3.028787 22.612508 57.075957 -158.443655 87.824799 156.474907 0.000000 0.000000 0.000000 
